<svg xmlns="http://www.w3.org/2000/svg" enable-background="new 0 0 512 512" viewBox="0 0 512 512"><path fill="#cadd6d" d="M354.2,512H157.7c-8.4,0-15.6-6.2-16.8-14.6c-10.2-72.2-51.5-377-52.5-382.2h335c3-16.9-40.2,302.3-52.4,382.4
		C369.7,505.9,362.6,512,354.2,512z"/><path fill="#f3f3f3" d="M436.2,70.7l17.9,26.9c5,7.5-0.4,17.6-9.4,17.6H67.3c-9,0-14.4-10.1-9.4-17.6l17.9-26.9c2.1-3.1,5.6-5,9.4-5
		h341.5C430.6,65.7,434.1,67.6,436.2,70.7z"/><path fill="#bcc6cb" d="M406.1,46.5v19.1H105.9V46.5c0-6.2,5.1-11.3,11.3-11.3h277.7C401.1,35.2,406.1,40.3,406.1,46.5z"/><path fill="#d1dee7" d="M371.1,11.3v23.9h-65.3L332.1,4c2.1-2.6,5.3-4,8.7-4h19.1C366.1,0,371.1,5.1,371.1,11.3z"/><path fill="#f3f3f3" d="M416,204.3c6.8,0,12.1,6,11.2,12.8c-2.6,19.4-5.5,40.6-8.5,62.3c-3.2,23.5-11,80.5-18.4,133.1
		c-0.8,5.6-5.6,9.7-11.2,9.7h-266c-5.7,0-10.4-4.2-11.2-9.8c-9.7-70.9-22.1-162.2-26.7-195.4c-0.9-6.8,4.4-12.8,11.2-12.8H416z"/><path fill="#f6ce6e" d="M310.9,313.3c0,30.2-24.5,54.6-54.6,54.6c-30.1,0-54.6-24.4-54.6-54.6c0-30.1,24.5-54.5,54.6-54.5
		C286.4,258.8,310.9,283.2,310.9,313.3z"/></svg>